<svg width="99" height="40" viewBox="0 0 99 40" xmlns="http://www.w3.org/2000/svg"><path d="M12.798 8.718C5.819 8.718 0 11.702 0 20.712c0 7.138 3.905 11.643 12.972 11.643 10.671 0 11.348-7.099 11.348-7.099h-5.162s-1.102 3.822-6.495 3.822c-4.389 0-7.56-2.983-7.56-7.196H24.88v-2.633c0-4.134-2.61-10.531-12.082-10.531zM29.907 0v12.54s2.146-3.744 9.028-3.744c7.366 0 11.715 5.246 11.715 11.76 0 .781-.059 1.536-.173 2.261 1.195-3.356 5.301-5.011 12.063-5.011h6.128v-1.092c0-3.062-2.668-4.661-6.128-4.661-5.317 0-5.587 3.393-5.587 3.393h-5.22c0-.936.676-6.728 11.174-6.728 3.587 0 7.524.763 9.509 3.759L70.91 9.634h5.877L85.236 26.7l8.428-17.065H99L83.67 40h-5.587l4.427-8.464-9.462-17.868c.429 1.033.67 2.27.666 3.748v10.96c0 1.268.174 3.257.174 3.257h-4.64s-.116-1.599-.116-3.218c0 0-2.359 4.076-9.686 4.076-5.355 0-9.337-2.613-9.337-7.41 0-.26.012-.512.036-.757-1.39 4.928-5.567 8.128-11.21 8.128-6.631 0-9.067-3.842-9.067-3.842 0 1.444-.174 3.043-.174 3.043h-4.93s.116-2.223.116-3.803V0h5.027zm38.78 21.082c-7.945 0-13.339.04-13.339 3.998 0 2.185 1.605 4.077 5.355 4.077 6.824 0 7.984-4.72 7.984-6.612zm-31.009-8.854c-5.316 0-7.752 4.252-7.752 8.347 0 4.427 2.726 8.406 7.791 8.406 4.234 0 7.714-3.335 7.714-8.445 0-4.758-3.016-8.308-7.753-8.308zm-25.054-.136c4.176 0 7.037 2.574 7.037 6.455H5.239c-.02-4.115 3.712-6.455 7.385-6.455z" fill="#C8CFD5" fill-rule="evenodd"/></svg>