<svg xmlns="http://www.w3.org/2000/svg" width="90" height="90" viewBox="0 0 90 90"><g fill="none" fill-rule="evenodd"><circle stroke="#FB454C" stroke-width="6" fill="#070813" cx="45" cy="45" r="42"></circle><path d="M66 39.523c0 .37-.219.774-.656 1.211L56.18 49.67l2.171 12.62c.017.118.025.287.025.505 0 .354-.088.653-.265.897-.176.243-.433.365-.77.365-.32 0-.656-.1-1.01-.302L45 57.797l-11.333 5.957c-.37.202-.707.302-1.01.302-.353 0-.618-.122-.795-.365-.176-.244-.265-.543-.265-.897 0-.1.017-.269.05-.504l2.172-12.62-9.188-8.936c-.42-.454-.631-.858-.631-1.211 0-.623.471-1.01 1.413-1.161l12.671-1.843 5.68-11.484C44.082 24.345 44.494 24 45 24s.917.345 1.237 1.035l5.679 11.484 12.67 1.843c.943.151 1.414.538 1.414 1.16z" fill="#FFF"></path></g></svg>