<svg xmlns="http://www.w3.org/2000/svg" viewBox="0 0 156 30"><path d="M44.9 20v-3.1h2.4l2.2 3.1h2.8l-2.5-3.6c.7-.3 1.3-.8 1.7-1.4.4-.6.6-1.3.6-2.2s-.2-1.6-.6-2.2c-.4-.6-1-1.1-1.7-1.4s-1.6-.5-2.6-.5h-4.8V20h2.5zm2.1-5.2h-2.1v-3.9H47c.8 0 1.4.2 1.8.5.4.3.6.8.6 1.4 0 .6-.2 1.1-.6 1.4-.4.4-1 .6-1.8.6zM63.3 20v-2.1h-6.1v-2.6h5.2v-2h-5.2v-2.4h5.9V8.8h-8.5V20h8.7zm8.3 0l4.8-11.2h-2.6l-3.5 8-3.4-8h-2.8L69 20h2.6zm8.9 0V8.8h-2.6V20h2.6zm11.8 0v-2.1h-6.1v-2.6h5.2v-2h-5.2v-2.4h5.9V8.8h-8.5V20h8.7zm7.9 0l2.5-7.6 2.5 7.6h2.8l3.7-11.2h-2.5l-2.6 7.9-2.6-7.9h-2.4L99 16.7l-2.5-7.9h-2.7L97.4 20h2.8z" fill="#111518"/><path d="M121.8 20v-4.4h4.3V20h3.2V8.8h-3.2V13h-4.3V8.8h-3.2V20h3.2zm15.4.2c1.7 0 3-.5 3.9-1.4s1.4-2.2 1.4-3.9V8.8h-3.1v6.1c0 1.8-.7 2.7-2.1 2.7-1.4 0-2.1-.9-2.1-2.7V8.8H132V15c0 1.7.5 2.9 1.4 3.9.8.9 2.1 1.3 3.8 1.3zm13.9-.2c1.5 0 2.6-.3 3.4-.8s1.2-1.3 1.2-2.3c0-.7-.2-1.2-.5-1.7s-.9-.8-1.5-1c.5-.2.9-.6 1.1-1s.4-.9.4-1.4c0-.9-.4-1.6-1.1-2.1-.7-.5-1.8-.8-3.3-.8h-5.7V20h6zm-.7-6.8h-2.2V11h2.2c1.1 0 1.6.4 1.6 1.1 0 .8-.5 1.1-1.6 1.1zm.5 4.5h-2.7v-2.3h2.7c1.1 0 1.7.4 1.7 1.1s-.6 1.2-1.7 1.2z" fill="#fb454c"/><circle cx="15" cy="15" r="14" fill-rule="evenodd" clip-rule="evenodd" fill="#070813" stroke="#fb454c" stroke-width="2"/><path d="M22 13.2c0 .1-.1.3-.2.4l-3.1 3 .7 4.2v.2c0 .1 0 .2-.1.3-.1.1-.1.1-.3.1-.1 0-.2 0-.3-.1l-3.8-2-3.8 2c-.1.1-.2.1-.3.1-.1 0-.2 0-.3-.1-.1-.1-.1-.2-.1-.3v-.2l.7-4.2-3.1-3c.1-.2 0-.3 0-.4 0-.2.2-.3.5-.4l4.2-.6 1.9-3.8c.1-.3.2-.4.4-.4s.3.1.4.3l1.9 3.8 4.2.6c.3.1.5.3.5.5z" fill-rule="evenodd" clip-rule="evenodd" fill="#fff"/></svg>